<?xml version="1.0" standalone="no"?>
<!DOCTYPE svg PUBLIC "-//W3C//DTD SVG 20010904//EN"
 "http://www.w3.org/TR/2001/REC-SVG-20010904/DTD/svg10.dtd">
<svg version="1.0" xmlns="http://www.w3.org/2000/svg"
 width="70.000000pt" height="70.000000pt" viewBox="0 0 70.000000 70.000000"
 preserveAspectRatio="xMidYMid meet">
<metadata>
Created by potrace 1.11, written by Peter Selinger 2001-2013
</metadata>
<g transform="translate(0.000000,70.000000) scale(0.100000,-0.100000)"
fill="#000000" stroke="none">
<path d="M574 553 c1 -84 2 -88 24 -89 20 -1 22 3 18 27 -3 22 0 29 12 30 72
4 67 -1 70 62 l3 57 -64 0 -63 0 0 -87z"/>
<path d="M63 421 c-63 -39 -79 -101 -44 -170 19 -37 92 -111 110 -111 13 0 88
86 105 120 11 23 14 61 7 102 -1 10 -59 68 -68 69 -57 7 -85 5 -110 -10z m87
-86 c6 -8 9 -23 5 -35 -10 -31 -59 -24 -63 9 -6 37 34 55 58 26z"/>
<path d="M310 410 c-24 -24 -26 -63 -4 -84 18 -19 14 -18 129 -20 88 -1 93 -3
87 -33 -1 -5 -54 -8 -117 -8 -130 1 -155 -10 -155 -65 0 -34 38 -65 70 -57 11
3 20 1 20 -5 0 -5 5 -6 11 -3 14 9 69 13 69 5 0 -3 16 -4 35 -2 19 2 35 0 35
-6 0 -26 -32 -31 -195 -31 -164 1 -169 1 -172 -20 -3 -21 -1 -21 186 -21 169
0 190 2 204 18 21 23 22 66 1 86 -17 17 -14 17 -129 21 -100 3 -95 2 -95 20 0
17 -2 17 141 19 121 2 139 10 139 62 0 47 -28 62 -115 62 -114 0 -125 1 -122
15 4 21 13 23 134 22 115 -1 136 4 126 32 -4 10 -35 13 -134 13 -116 0 -131
-2 -149 -20z"/>
</g>
</svg>
